<?xml version="1.0" encoding="utf-8"?>
<!-- Generator: Adobe Illustrator 21.1.0, SVG Export Plug-In . SVG Version: 6.00 Build 0)  -->
<svg version="1.1" id="レイヤー_1" xmlns="http://www.w3.org/2000/svg" xmlns:xlink="http://www.w3.org/1999/xlink" x="0px"
	 y="0px" viewBox="0 0 65.158 63.549" style="enable-background:new 0 0 65.158 63.549;" xml:space="preserve">
<style type="text/css">
	.st0{fill-rule:evenodd;clip-rule:evenodd;fill:#FFFFFF;}
</style>
<path class="st0" d="M32.577,0C14.588,0,0,14.586,0,32.581c0,14.393,9.334,26.604,22.281,30.912c1.629,0.299,2.224-0.707,2.224-1.57
	c0-0.773-0.028-2.822-0.044-5.541c-9.062,1.969-10.975-4.367-10.975-4.367c-1.481-3.764-3.617-4.766-3.617-4.766
	c-2.958-2.021,0.224-1.98,0.224-1.98c3.269,0.23,4.99,3.357,4.99,3.357c2.906,4.979,7.625,3.541,9.481,2.707
	c0.296-2.105,1.138-3.541,2.068-4.355c-7.234-0.822-14.84-3.617-14.84-16.102c0-3.557,1.269-6.465,3.353-8.742
	c-0.335-0.824-1.453-4.137,0.319-8.622c0,0,2.735-0.876,8.959,3.34c2.599-0.723,5.386-1.084,8.156-1.097
	c2.767,0.013,5.554,0.374,8.156,1.097c6.22-4.216,8.95-3.34,8.95-3.34c1.777,4.485,0.659,7.798,0.324,8.622
	c2.088,2.277,3.349,5.186,3.349,8.742c0,12.516-7.617,15.27-14.875,16.076c1.17,1.006,2.212,2.994,2.212,6.033
	c0,4.355-0.04,7.869-0.04,8.937c0,0.871,0.587,1.885,2.24,1.567c12.935-4.317,22.261-16.52,22.261-30.908
	C65.158,14.586,50.57,0,32.577,0z"/>
</svg>
